<?xml version="1.0" encoding="UTF-8"?>
<svg id="Layer_1" data-name="Layer 1" xmlns="http://www.w3.org/2000/svg" xmlns:xlink="http://www.w3.org/1999/xlink" viewBox="0 0 172 68">
  <defs>
    <style>
      .cls-1 {
        mask: url(#mask);
      }

      .cls-2 {
        fill: #fff;
      }

      .cls-2, .cls-3 {
        fill-rule: evenodd;
      }
    </style>
    <mask id="mask" x="0" y="0" width="172" height="68" maskUnits="userSpaceOnUse">
      <g id="mask-2">
        <polygon id="path-1" class="cls-2" points="0 0 172 0 172 68 0 68 0 0"/>
      </g>
    </mask>
  </defs>
  <g class="cls-1">
    <path id="Fill-3" class="cls-3" d="M148.78,45.68c0-3.63,5.5-3.63,5.5,0s-5.5,3.63-5.5,0h0ZM144.14,48.08h-4.66v-10.16c0-2.48-1.03-4.58-3.55-4.58s-4.09,2.18-4.09,4.66v10.09h-4.66v-10.09c0-2.48-1.3-4.74-3.86-4.74s-4.01,2.25-4.01,4.74v10.09h-4.66v-18.87h4.32l.34,2.29c.99-1.91,3.17-2.6,4.97-2.6,2.25,0,4.51.92,5.58,3.51,1.68-2.67,3.86-3.44,6.3-3.44,5.35,0,7.99,3.28,7.99,8.94v10.16ZM105.93,48.08h4.62v-26.7h-4.62v26.7ZM96.64,23.94c0-3.63,5.5-3.63,5.5,0s-5.5,3.63-5.5,0h0ZM97.06,48.08h4.66v-18.91h-4.66v18.91ZM93.92,25.89c-.99-.65-1.91-.99-2.86-.99-1.6,0-2.83,1.07-2.83,3.36v1.26h5.54v4.09h-5.54v14.48h-4.66v-14.48h-3.52v-4.09h3.52v-1.26c0-5.04,3.4-7.37,7.18-7.37,1.64,0,3.36.53,4.89,1.53l-1.72,3.48ZM75.46,48.31c-4.09.15-6.76-2.18-6.76-6.88v-8.14h-3.51v-4.01h3.51v-4.85l4.66-.5v5.35h5.2v4.01h-5.23v8.14c0,1.8.99,2.67,2.44,2.67.72,0,1.57-.23,2.25-.57l1.3,3.97c-1.34.53-2.45.76-3.86.8h0ZM57.5,23.94c0-3.63,5.5-3.63,5.5,0s-5.5,3.63-5.5,0h0ZM57.92,48.08h4.66v-18.91h-4.66v18.91ZM33.96,29.52v4.09h-5.54v14.48h-4.66v-14.48h-3.52v-4.09h3.52v-1.26c0-5.04,3.4-7.37,7.18-7.37,1.64,0,3.36.53,4.89,1.53l-1.72,3.48c-.99-.65-1.91-.99-2.86-.99-1.6,0-2.83,1.07-2.83,3.36v1.26h5.54Z"/>
  </g>
  <path class="cls-3" d="M44.81,28.68c-6.11,0-10.01,4.13-10.01,9.85,0,6.04,3.86,10.05,10.35,10.05,2.86,0,6.11-.99,8.1-3.06l-2.98-2.94c-1.07,1.11-3.32,1.76-5.04,1.76-3.29,0-5.31-1.68-5.62-4.01h14.71c.72-7.76-3.21-11.65-9.51-11.65ZM39.69,36.47c.69-2.44,2.75-3.67,5.27-3.67,2.67,0,4.58,1.22,4.89,3.67h-10.16Z"/>
</svg>